<?xml version="1.0" encoding="UTF-8" standalone="no"?>
<svg
   xmlns:dc="http://purl.org/dc/elements/1.1/"
   xmlns:cc="http://creativecommons.org/ns#"
   xmlns:rdf="http://www.w3.org/1999/02/22-rdf-syntax-ns#"
   xmlns:svg="http://www.w3.org/2000/svg"
   xmlns="http://www.w3.org/2000/svg"
   id="svg885"
   version="1.1"
   viewBox="0 0 64 64">
  <metadata
     id="metadata891">
    <rdf:RDF>
      <cc:Work
         rdf:about="">
        <dc:format>image/svg+xml</dc:format>
        <dc:type
           rdf:resource="http://purl.org/dc/dcmitype/StillImage" />
        <dc:title></dc:title>
      </cc:Work>
    </rdf:RDF>
  </metadata>
  <defs
     id="defs889" />
  <g
     style="fill:#9f3cdc;fill-opacity:1"
     id="Accounting">
    <path
       style="fill:#9f3cdc;fill-opacity:1"
       id="path874"
       d="M45,9H21a1,1,0,0,0-1,1v6a1,1,0,0,0,1,1H45a1,1,0,0,0,1-1V10A1,1,0,0,0,45,9Zm-1,6H22V11H44Z" />
    <path
       style="fill:#9f3cdc;fill-opacity:1"
       id="path876"
       d="M44,22H25a1,1,0,0,0,0,2H44a1,1,0,0,0,0-2Z" />
    <path
       style="fill:#9f3cdc;fill-opacity:1"
       id="path878"
       d="M8,32v5a1,1,0,0,0,1,1H25a1,1,0,0,0,1-1V32a1,1,0,0,0-1-1H9A1,1,0,0,0,8,32Zm2,1H24v3H10Z" />
    <path
       style="fill:#9f3cdc;fill-opacity:1"
       id="path880"
       d="M25,41H9a1,1,0,0,0-1,1V56a1,1,0,0,0,1,1H25a1,1,0,0,0,1-1V42A1,1,0,0,0,25,41ZM16,55H10V50h6Zm0-7H10V43h6Zm8,7H18V50h6Zm0-7H18V43h6Z" />
    <path
       style="fill:#9f3cdc;fill-opacity:1"
       id="path882"
       d="M62,45a3.0033,3.0033,0,0,0-3-3H53V3a1,1,0,0,0-1-1H14a1,1,0,0,0-1,1V26H3a1,1,0,0,0-1,1V61a1,1,0,0,0,1,1H31a1,1,0,0,0,1-1V56h4.1843A2.9635,2.9635,0,0,0,36,57v2a3.0033,3.0033,0,0,0,3,3h8a2.9769,2.9769,0,0,0,2-.78A2.9769,2.9769,0,0,0,51,62h8a3.0033,3.0033,0,0,0,3-3V57a2.9769,2.9769,0,0,0-.78-2A2.9769,2.9769,0,0,0,62,53V51a2.9769,2.9769,0,0,0-.78-2A2.9769,2.9769,0,0,0,62,47ZM30,55v5H4V28H30Zm18,4a1.0006,1.0006,0,0,1-1,1H39a1.0006,1.0006,0,0,1-1-1V57a1.0006,1.0006,0,0,1,1-1h8a1.0006,1.0006,0,0,1,1,1Zm0-6a1.0006,1.0006,0,0,1-1,1H39a1.0006,1.0006,0,0,1-1-1V51a1.0006,1.0006,0,0,1,1-1h8a1.0006,1.0006,0,0,1,1,1Zm0-6a1.0006,1.0006,0,0,1-1,1H39a1.0006,1.0006,0,0,1-1-1V45a1.0006,1.0006,0,0,1,1-1h8a1.0006,1.0006,0,0,1,1,1Zm-1-5H39a3.0033,3.0033,0,0,0-3,3v2a2.9769,2.9769,0,0,0,.78,2A2.9769,2.9769,0,0,0,36,51v2a2.966,2.966,0,0,0,.1843,1H32V38H44a1,1,0,0,0,0-2H32V31H44a1,1,0,0,0,0-2H32V27a1,1,0,0,0-1-1H15V4H51V42a2.9769,2.9769,0,0,0-2,.78A2.9769,2.9769,0,0,0,47,42ZM60,59a1.0006,1.0006,0,0,1-1,1H51a1.0006,1.0006,0,0,1-1-1V57a1.0006,1.0006,0,0,1,1-1h8a1.0006,1.0006,0,0,1,1,1Zm0-6a1.0006,1.0006,0,0,1-1,1H51a1.0006,1.0006,0,0,1-1-1V51a1.0006,1.0006,0,0,1,1-1h8a1.0006,1.0006,0,0,1,1,1Zm0-6a1.0006,1.0006,0,0,1-1,1H51a1.0006,1.0006,0,0,1-1-1V45a1.0006,1.0006,0,0,1,1-1h8a1.0006,1.0006,0,0,1,1,1Z" />
  </g>
</svg>
