<?xml version="1.0" encoding="UTF-8" standalone="no"?>
<svg
   xmlns:dc="http://purl.org/dc/elements/1.1/"
   xmlns:cc="http://creativecommons.org/ns#"
   xmlns:rdf="http://www.w3.org/1999/02/22-rdf-syntax-ns#"
   xmlns:svg="http://www.w3.org/2000/svg"
   xmlns="http://www.w3.org/2000/svg"
   id="svg4037"
   version="1.1"
   viewBox="0 0 64 64">
  <metadata
     id="metadata4043">
    <rdf:RDF>
      <cc:Work
         rdf:about="">
        <dc:format>image/svg+xml</dc:format>
        <dc:type
           rdf:resource="http://purl.org/dc/dcmitype/StillImage" />
        <dc:title></dc:title>
      </cc:Work>
    </rdf:RDF>
  </metadata>
  <defs
     id="defs4041" />
  <g
     style="fill:#9f3cdc;fill-opacity:1"
     id="Online_Shop"
     data-name="Online Shop">
    <path
       style="fill:#9f3cdc;fill-opacity:1"
       id="path4026"
       d="M60,2H4A2.0023,2.0023,0,0,0,2,4V50a2.0023,2.0023,0,0,0,2,2H18.6559l-2.4,8H15a1,1,0,0,0,0,2H49a1,1,0,0,0,0-2H47.7441l-2.4-8H60a2.0023,2.0023,0,0,0,2-2V4A2.0023,2.0023,0,0,0,60,2Zm0,2,.0008,38H4V4ZM45.6563,60H18.3438l2.4-8H43.2559ZM44,50H4V44H60.0009v6Z" />
    <path
       style="fill:#9f3cdc;fill-opacity:1"
       id="path4028"
       d="M11,36H33a2.0023,2.0023,0,0,0,2-2V12a2.0023,2.0023,0,0,0-2-2H11a2.0023,2.0023,0,0,0-2,2V34A2.0023,2.0023,0,0,0,11,36Zm8-2V26h6v8Zm8,0V25a1,1,0,0,0-1-1H18a1,1,0,0,0-1,1v9H11V20.9744a4.9328,4.9328,0,0,0,7-1.0053,4.9546,4.9546,0,0,0,8,0,4.9328,4.9328,0,0,0,7,1.0053V34Zm6-18v1a3,3,0,0,1-6,0V12h6Zm-8,1a3,3,0,0,1-6,0V12h6ZM11,12h6v5a3,3,0,0,1-6,0V12Z" />
    <path
       style="fill:#9f3cdc;fill-opacity:1"
       id="path4030"
       d="M41,16H54a1,1,0,0,0,0-2H41a1,1,0,0,0,0,2Z" />
    <path
       style="fill:#9f3cdc;fill-opacity:1"
       id="path4032"
       d="M41,24H54a1,1,0,0,0,0-2H41a1,1,0,0,0,0,2Z" />
    <path
       style="fill:#9f3cdc;fill-opacity:1"
       id="path4034"
       d="M41,32H54a1,1,0,0,0,0-2H41a1,1,0,0,0,0,2Z" />
  </g>
</svg>
